{
  "asset": {
    "generator": "Khronos glTF Blender I/O v1.6.16",
    "version": "2.0"
  },
  "extensionsUsed": [
    "KHR_texture_transform"
  ],
  "extensionsRequired": [
    "KHR_texture_transform"
  ],
  "scene": 0,
  "scenes": [
    {
      "name": "Scene",
      "nodes": [
        0
      ]
    }
  ],
  "nodes": [
    {
      "mesh": 0,
      "name": "sphere_gltf"
    }
  ],
  "materials": [
    {
      "doubleSided": true,
      "name": "preconcrete_wall_001_long",
      "normalTexture": {
        "extensions": {
          "KHR_texture_transform": {
            "offset": [
              0,
              -3
            ],
            "scale": [
              1,
              4
            ]
          }
        },
        "index": 0
      },
      "pbrMetallicRoughness": {
        "baseColorTexture": {
          "extensions": {
            "KHR_texture_transform": {
              "offset": [
                0,
                -3
              ],
              "scale": [
                1,
                4
              ]
            }
          },
          "index": 1
        },
        "metallicFactor": 0,
        "metallicRoughnessTexture": {
          "extensions": {
            "KHR_texture_transform": {
              "offset": [
                0,
                -3
              ],
              "scale": [
                1,
                4
              ]
            }
          },
          "index": 2
        }
      }
    }
  ],
  "meshes": [
    {
      "name": "Sphere.001",
      "primitives": [
        {
          "attributes": {
            "POSITION": 0,
            "NORMAL": 1,
            "TEXCOORD_0": 2
          },
          "indices": 3,
          "material": 0
        }
      ]
    }
  ],
  "textures": [
    {
      "sampler": 0,
      "source": 0
    },
    {
      "sampler": 0,
      "source": 1
    },
    {
      "sampler": 0,
      "source": 2
    }
  ],
  "images": [
    {
      "mimeType": "image/jpeg",
      "name": "preconcrete_wall_001_long_nor_gl_24k",
      "uri": "textures/preconcrete_wall_001_long_nor_gl_4k.jpg"
    },
    {
      "mimeType": "image/jpeg",
      "name": "preconcrete_wall_001_long_diff_24k",
      "uri": "textures/preconcrete_wall_001_long_diff_4k.jpg"
    },
    {
      "mimeType": "image/jpeg",
      "name": "preconcrete_wall_001_long_rough_24k",
      "uri": "textures/preconcrete_wall_001_long_rough_4k.jpg"
    }
  ],
  "accessors": [
    {
      "bufferView": 0,
      "componentType": 5126,
      "count": 53947,
      "max": [
        2.006418466567993,
        2.005547046661377,
        2.007422924041748
      ],
      "min": [
        -2.0064187049865723,
        -2.009392499923706,
        -2.00742506980896
      ],
      "type": "VEC3"
    },
    {
      "bufferView": 1,
      "componentType": 5126,
      "count": 53947,
      "type": "VEC3"
    },
    {
      "bufferView": 2,
      "componentType": 5126,
      "count": 53947,
      "type": "VEC2"
    },
    {
      "bufferView": 3,
      "componentType": 5123,
      "count": 322170,
      "type": "SCALAR"
    }
  ],
  "bufferViews": [
    {
      "buffer": 0,
      "byteLength": 647364,
      "byteOffset": 0
    },
    {
      "buffer": 0,
      "byteLength": 647364,
      "byteOffset": 647364
    },
    {
      "buffer": 0,
      "byteLength": 431576,
      "byteOffset": 1294728
    },
    {
      "buffer": 0,
      "byteLength": 644340,
      "byteOffset": 1726304
    }
  ],
  "samplers": [
    {
      "magFilter": 9729,
      "minFilter": 9987
    }
  ],
  "buffers": [
    {
      "byteLength": 2370644,
      "uri": "preconcrete_wall_001_long.bin"
    }
  ]
}